<svg width="10" height="6" viewBox="0 0 10 6" fill="none" xmlns="http://www.w3.org/2000/svg">
<path d="M5.00288 5.10228L0.639384 0.856281C0.604219 0.821323 0.562471 0.793686 0.516555 0.774968C0.470639 0.756251 0.421467 0.746826 0.371885 0.747238C0.322302 0.74765 0.273294 0.757891 0.227695 0.777368C0.182096 0.796845 0.140813 0.825172 0.106235 0.860709C0.0716559 0.896247 0.0444681 0.938289 0.0262447 0.984403C0.00802132 1.03052 -0.000875905 1.07979 6.79507e-05 1.12936C0.00101181 1.17894 0.011778 1.22783 0.0317435 1.27322C0.0517089 1.31861 0.0804772 1.35958 0.116384 1.39378L4.74138 5.89378C4.81139 5.96189 4.90521 6 5.00288 6C5.10056 6 5.19438 5.96189 5.26438 5.89378L9.88938 1.39378C9.92529 1.35958 9.95406 1.31861 9.97402 1.27322C9.99399 1.22783 10.0048 1.17894 10.0057 1.12936C10.0066 1.07979 9.99775 1.03052 9.97952 0.984403C9.9613 0.938289 9.93411 0.896247 9.89953 0.860709C9.86495 0.825172 9.82367 0.796845 9.77807 0.777368C9.73247 0.757891 9.68346 0.74765 9.63388 0.747238C9.5843 0.746826 9.53513 0.756251 9.48921 0.774968C9.4433 0.793686 9.40155 0.821323 9.36638 0.856281L5.00288 5.10228Z" fill="black"/>
</svg>
