<svg width="10" height="11" viewBox="0 0 10 11" fill="none" xmlns="http://www.w3.org/2000/svg">
<path d="M2.59922 5.58223C2.59922 5.50266 2.63083 5.42636 2.68709 5.37009C2.74335 5.31383 2.81965 5.28223 2.89922 5.28223H4.69922V3.48223C4.69922 3.40266 4.73083 3.32636 4.78709 3.27009C4.84335 3.21383 4.91965 3.18223 4.99922 3.18223C5.07878 3.18223 5.15509 3.21383 5.21135 3.27009C5.26761 3.32636 5.29922 3.40266 5.29922 3.48223V5.28223H7.09922C7.17878 5.28223 7.25509 5.31383 7.31135 5.37009C7.36761 5.42636 7.39922 5.50266 7.39922 5.58223C7.39922 5.66179 7.36761 5.7381 7.31135 5.79436C7.25509 5.85062 7.17878 5.88223 7.09922 5.88223H5.29922V7.68223C5.29922 7.76179 5.26761 7.8381 5.21135 7.89436C5.15509 7.95062 5.07878 7.98223 4.99922 7.98223C4.91965 7.98223 4.84335 7.95062 4.78709 7.89436C4.73083 7.8381 4.69922 7.76179 4.69922 7.68223V5.88223H2.89922C2.81965 5.88223 2.74335 5.85062 2.68709 5.79436C2.63083 5.7381 2.59922 5.66179 2.59922 5.58223ZM4.99922 10.3822C6.27226 10.3822 7.49316 9.87651 8.39333 8.97634C9.29351 8.07617 9.79922 6.85527 9.79922 5.58223C9.79922 4.30919 9.29351 3.08829 8.39333 2.18811C7.49316 1.28794 6.27226 0.782227 4.99922 0.782227C3.72618 0.782227 2.50528 1.28794 1.60511 2.18811C0.704932 3.08829 0.199219 4.30919 0.199219 5.58223C0.199219 6.85527 0.704932 8.07617 1.60511 8.97634C2.50528 9.87651 3.72618 10.3822 4.99922 10.3822ZM4.99922 9.78223C4.44767 9.78223 3.90152 9.67359 3.39195 9.46252C2.88238 9.25145 2.41938 8.94208 2.02937 8.55207C1.63936 8.16207 1.32999 7.69906 1.11892 7.1895C0.907855 6.67993 0.799219 6.13378 0.799219 5.58223C0.799219 5.03067 0.907855 4.48452 1.11892 3.97496C1.32999 3.46539 1.63936 3.00238 2.02937 2.61238C2.41938 2.22237 2.88238 1.913 3.39195 1.70193C3.90152 1.49086 4.44767 1.38223 4.99922 1.38223C6.11313 1.38223 7.18141 1.82473 7.96907 2.61238C8.75672 3.40003 9.19922 4.46832 9.19922 5.58223C9.19922 6.69614 8.75672 7.76442 7.96907 8.55207C7.18141 9.33973 6.11313 9.78223 4.99922 9.78223Z" fill="#F79E1B"/>
</svg>
