<svg width="33" height="23" viewBox="0 0 33 23" fill="none" xmlns="http://www.w3.org/2000/svg">
<path d="M22.668 15.2C22.3497 15.2 22.0445 15.3264 21.8194 15.5515C21.5944 15.7765 21.468 16.0817 21.468 16.4C21.468 16.7183 21.5944 17.0235 21.8194 17.2485C22.0445 17.4736 22.3497 17.6 22.668 17.6H26.668C26.9862 17.6 27.2915 17.4736 27.5165 17.2485C27.7415 17.0235 27.868 16.7183 27.868 16.4C27.868 16.0817 27.7415 15.7765 27.5165 15.5515C27.2915 15.3264 26.9862 15.2 26.668 15.2H22.668ZM0.667969 5.2C0.667969 3.82087 1.21582 2.49823 2.19101 1.52304C3.1662 0.547855 4.48884 0 5.86797 0H27.468C28.1508 0 28.827 0.134502 29.4579 0.395827C30.0888 0.657151 30.6621 1.04018 31.1449 1.52304C31.6278 2.00591 32.0108 2.57915 32.2721 3.21005C32.5335 3.84094 32.668 4.51713 32.668 5.2V17.2C32.668 17.8829 32.5335 18.5591 32.2721 19.19C32.0108 19.8208 31.6278 20.3941 31.1449 20.877C30.6621 21.3598 30.0888 21.7429 29.4579 22.0042C28.827 22.2655 28.1508 22.4 27.468 22.4H5.86797C4.48884 22.4 3.1662 21.8521 2.19101 20.877C1.21582 19.9018 0.667969 18.5791 0.667969 17.2V5.2ZM30.268 7.2V5.2C30.268 4.45739 29.973 3.7452 29.4479 3.2201C28.9228 2.695 28.2106 2.4 27.468 2.4H5.86797C5.12536 2.4 4.41317 2.695 3.88807 3.2201C3.36297 3.7452 3.06797 4.45739 3.06797 5.2V7.2H30.268ZM3.06797 9.6V17.2C3.06797 18.7456 4.32237 20 5.86797 20H27.468C28.2106 20 28.9228 19.705 29.4479 19.1799C29.973 18.6548 30.268 17.9426 30.268 17.2V9.6H3.06797Z" fill="white"/>
</svg>
