<svg width="21" height="20" viewBox="0 0 21 20" fill="none" xmlns="http://www.w3.org/2000/svg">
<g clip-path="url(#clip0_3340_2058)">
<path d="M18.4102 0.468822H2.16016C1.79146 0.46507 1.43632 0.607735 1.17269 0.865514C0.909048 1.12329 0.758439 1.47513 0.753906 1.84382V18.1594C0.759259 18.5276 0.910228 18.8786 1.17378 19.1357C1.43732 19.3928 1.79199 19.5351 2.16016 19.5313H18.4102C18.7789 19.5342 19.1338 19.3911 19.3973 19.1332C19.6608 18.8752 19.8115 18.5235 19.8164 18.1548V1.83913C19.8098 1.47152 19.6584 1.12136 19.3951 0.864769C19.1318 0.608173 18.7778 0.465881 18.4102 0.468822Z" fill="#0076B2"/>
<path d="M3.57656 7.61426H6.40625V16.7189H3.57656V7.61426ZM4.99219 3.08301C5.31674 3.08301 5.634 3.17927 5.90383 3.35961C6.17367 3.53996 6.38395 3.79628 6.50808 4.09615C6.63221 4.39603 6.6646 4.72598 6.60117 5.04428C6.53774 5.36257 6.38133 5.6549 6.15173 5.88428C5.92213 6.11367 5.62965 6.2698 5.3113 6.33292C4.99295 6.39605 4.66302 6.36334 4.36326 6.23892C4.06351 6.11451 3.80738 5.90398 3.6273 5.63398C3.44721 5.36397 3.35125 5.04662 3.35156 4.72207C3.35198 4.28722 3.52501 3.87032 3.83264 3.56298C4.14028 3.25564 4.55734 3.08301 4.99219 3.08301ZM8.18125 7.61426H10.8938V8.86426H10.9313C11.3094 8.14863 12.2313 7.39394 13.6078 7.39394C16.4734 7.38769 17.0047 9.27363 17.0047 11.7189V16.7189H14.175V12.2893C14.175 11.2346 14.1563 9.87676 12.7047 9.87676C11.2531 9.87676 11.0063 11.0268 11.0063 12.2205V16.7189H8.18125V7.61426Z" fill="white"/>
</g>
<defs>
<clipPath id="clip0_3340_2058">
<rect width="20" height="20" fill="white" transform="translate(0.285156)"/>
</clipPath>
</defs>
</svg>
