<svg width="24" height="23" viewBox="0 0 24 23" fill="none" xmlns="http://www.w3.org/2000/svg">
<path d="M16.7424 14.5412L16.1357 15.1452C16.1357 15.1452 14.6917 16.5799 10.7517 12.6626C6.81176 8.74525 8.25575 7.31059 8.25575 7.31059L8.63708 6.92926C9.57974 5.99327 9.66908 4.48928 8.84642 3.39062L7.16643 1.14663C6.14777 -0.213359 4.18111 -0.393358 3.01446 0.766634L0.921135 2.84662C0.343806 3.42262 -0.0428584 4.16661 0.00380797 4.99327C0.123807 7.10926 1.08113 11.6599 6.41976 16.9692C12.0824 22.5985 17.3957 22.8225 19.5677 22.6198C20.2557 22.5558 20.853 22.2065 21.3343 21.7265L23.2277 19.8438C24.5076 18.5732 24.1476 16.3932 22.5103 15.5039L19.9637 14.1185C18.889 13.5359 17.5824 13.7065 16.7424 14.5412Z" fill="black"/>
</svg>
