<svg width="23" height="23" viewBox="0 0 23 23" fill="none" xmlns="http://www.w3.org/2000/svg">
<g clip-path="url(#clip0_3062_1707)">
<path d="M6.36275 16.2633C3.63332 13.5339 3.63332 9.09324 6.36275 6.36381C9.09218 3.63438 13.5328 3.63438 16.2622 6.36381C18.9917 9.09324 18.9917 13.5339 16.2622 16.2633C13.5328 18.9927 9.09218 18.9927 6.36275 16.2633ZM15.5551 7.07092C13.2146 4.73039 9.41038 4.73039 7.06986 7.07092C4.72934 9.41144 4.72934 13.2157 7.06986 15.5562C9.41038 17.8967 13.2146 17.8967 15.5551 15.5562C17.8957 13.2157 17.8957 9.41144 15.5551 7.07092Z" fill="#13A8DA"/>
<path d="M8.8374 13.7887C8.63941 13.5907 8.63941 13.2795 8.8374 13.0815L13.08 8.8389C13.278 8.64092 13.5892 8.64092 13.7871 8.8389C13.9851 9.03689 13.9851 9.34802 13.7871 9.54601L9.54451 13.7887C9.34652 13.9866 9.03539 13.9866 8.8374 13.7887Z" fill="#13A8DA"/>
<path d="M13.0805 13.7887L8.83785 9.54601C8.63986 9.34802 8.63986 9.03689 8.83785 8.8389C9.03584 8.64092 9.34697 8.64092 9.54496 8.8389L13.7876 13.0815C13.9856 13.2795 13.9856 13.5907 13.7876 13.7887C13.5896 13.9866 13.2785 13.9866 13.0805 13.7887Z" fill="#13A8DA"/>
</g>
<defs>
<clipPath id="clip0_3062_1707">
<rect width="16" height="16" fill="white" transform="translate(11.3125) rotate(45)"/>
</clipPath>
</defs>
</svg>
