<svg width="34" height="27" viewBox="0 0 34 27" fill="none" xmlns="http://www.w3.org/2000/svg">
<path d="M1 3.46154C1 2.8087 1.25934 2.1826 1.72097 1.72097C2.1826 1.25934 2.8087 1 3.46154 1H10.6148C11.2988 0.999976 11.9658 1.21369 12.5225 1.61128L16.5545 4.49128C17.1111 4.88887 17.7781 5.10259 18.4622 5.10256H30.5385C31.1913 5.10256 31.8174 5.3619 32.279 5.82353C32.7407 6.28516 33 6.91126 33 7.5641V23.9744C33 24.6272 32.7407 25.2533 32.279 25.7149C31.8174 26.1766 31.1913 26.4359 30.5385 26.4359H3.46154C2.8087 26.4359 2.1826 26.1766 1.72097 25.7149C1.25934 25.2533 1 24.6272 1 23.9744V3.46154Z" stroke="white" stroke-linecap="round" stroke-linejoin="round"/>
<path d="M22.2157 12.9081H19.1864C19.0079 12.9081 18.8368 12.8372 18.7106 12.711C18.5844 12.5848 18.5136 12.4137 18.5136 12.2352V9.20508M22.2157 12.9081V21.6605C22.2157 21.8389 22.1448 22.01 22.0186 22.1362C21.8925 22.2624 21.7213 22.3333 21.5429 22.3333H12.4541C12.0824 22.3333 11.7812 22.0322 11.7812 21.6605V9.8779C11.7813 9.69946 11.8521 9.52832 11.9783 9.40214C12.1045 9.27597 12.2756 9.20508 12.4541 9.20508H18.5136M22.2157 12.9081L18.5136 9.20508" stroke="white" stroke-linecap="round" stroke-linejoin="round"/>
</svg>
