<svg width="35" height="35" viewBox="0 0 35 35" fill="none" xmlns="http://www.w3.org/2000/svg">
<g filter="url(#filter0_d_166_427)">
<circle cx="15.5" cy="14.5" r="13.5" fill="#F1F8FA"/>
<path d="M9.2 9.325H11.5625L13.1375 7.75H17.8625L19.4375 9.325H21.8C22.2177 9.325 22.6183 9.49094 22.9137 9.78631C23.2091 10.0817 23.375 10.4823 23.375 10.9V20.35C23.375 20.7677 23.2091 21.1683 22.9137 21.4637C22.6183 21.7591 22.2177 21.925 21.8 21.925H9.2C8.78228 21.925 8.38168 21.7591 8.08631 21.4637C7.79094 21.1683 7.625 20.7677 7.625 20.35V10.9C7.625 10.4823 7.79094 10.0817 8.08631 9.78631C8.38168 9.49094 8.78228 9.325 9.2 9.325ZM15.5 11.6875C14.4557 11.6875 13.4542 12.1023 12.7158 12.8408C11.9773 13.5792 11.5625 14.5807 11.5625 15.625C11.5625 16.6693 11.9773 17.6708 12.7158 18.4092C13.4542 19.1477 14.4557 19.5625 15.5 19.5625C16.5443 19.5625 17.5458 19.1477 18.2842 18.4092C19.0227 17.6708 19.4375 16.6693 19.4375 15.625C19.4375 14.5807 19.0227 13.5792 18.2842 12.8408C17.5458 12.1023 16.5443 11.6875 15.5 11.6875ZM15.5 13.2625C16.1266 13.2625 16.7275 13.5114 17.1705 13.9545C17.6136 14.3975 17.8625 14.9984 17.8625 15.625C17.8625 16.2516 17.6136 16.8525 17.1705 17.2955C16.7275 17.7386 16.1266 17.9875 15.5 17.9875C14.8734 17.9875 14.2725 17.7386 13.8295 17.2955C13.3864 16.8525 13.1375 16.2516 13.1375 15.625C13.1375 14.9984 13.3864 14.3975 13.8295 13.9545C14.2725 13.5114 14.8734 13.2625 15.5 13.2625Z" fill="black"/>
</g>
<defs>
<filter id="filter0_d_166_427" x="0" y="0" width="35" height="35" filterUnits="userSpaceOnUse" color-interpolation-filters="sRGB">
<feFlood flood-opacity="0" result="BackgroundImageFix"/>
<feColorMatrix in="SourceAlpha" type="matrix" values="0 0 0 0 0 0 0 0 0 0 0 0 0 0 0 0 0 0 127 0" result="hardAlpha"/>
<feOffset dx="2" dy="3"/>
<feGaussianBlur stdDeviation="2"/>
<feComposite in2="hardAlpha" operator="out"/>
<feColorMatrix type="matrix" values="0 0 0 0 0 0 0 0 0 0 0 0 0 0 0 0 0 0 0.25 0"/>
<feBlend mode="normal" in2="BackgroundImageFix" result="effect1_dropShadow_166_427"/>
<feBlend mode="normal" in="SourceGraphic" in2="effect1_dropShadow_166_427" result="shape"/>
</filter>
</defs>
</svg>
