<svg width="18" height="17" viewBox="0 0 18 17" fill="none" xmlns="http://www.w3.org/2000/svg">
<path d="M11.625 9.91667H11.0325L10.8225 9.72542C11.583 8.89247 12.0009 7.82901 12 6.72917C12 5.81855 11.7141 4.92838 11.1784 4.17123C10.6427 3.41408 9.88137 2.82395 8.99058 2.47547C8.09979 2.12699 7.11959 2.03582 6.17394 2.21347C5.22828 2.39112 4.35964 2.82963 3.67786 3.47353C2.99608 4.11744 2.53178 4.93782 2.34367 5.83094C2.15557 6.72406 2.25211 7.64981 2.62109 8.49111C2.99007 9.33241 3.61491 10.0515 4.4166 10.5574C5.21829 11.0633 6.16082 11.3333 7.125 11.3333C8.3325 11.3333 9.4425 10.9154 10.2975 10.2213L10.5 10.4196V10.9792L14.25 14.5138L15.3675 13.4583L11.625 9.91667ZM7.125 9.91667C5.2575 9.91667 3.75 8.49292 3.75 6.72917C3.75 4.96542 5.2575 3.54167 7.125 3.54167C8.9925 3.54167 10.5 4.96542 10.5 6.72917C10.5 8.49292 8.9925 9.91667 7.125 9.91667Z" fill="#B6B6B6"/>
</svg>
