<svg width="18" height="17" viewBox="0 0 18 17" fill="none" xmlns="http://www.w3.org/2000/svg">
<path d="M11.52 1.45158L17.551 11.4965C18.4177 12.9392 17.992 14.8373 16.5996 15.7355C16.1326 16.0387 15.5877 16.2 15.0309 16.1999H2.96821C1.3293 16.1999 0 14.8229 0 13.1228C0 12.5477 0.1557 11.9852 0.448201 11.4965L6.48002 1.45158C7.34582 0.00887256 9.17643 -0.433029 10.5687 0.465174C10.9539 0.713575 11.2797 1.05108 11.52 1.45158ZM9.52203 2.20668C9.41185 2.13581 9.28844 2.08801 9.15927 2.06617C9.0301 2.04433 8.89785 2.04889 8.77049 2.0796C8.64313 2.1103 8.52332 2.1665 8.4183 2.24481C8.31327 2.32311 8.22521 2.42189 8.15942 2.53518L2.12851 12.5819C2.03054 12.7456 1.9789 12.9329 1.97911 13.1237C1.97911 13.6907 2.42191 14.1497 2.96911 14.1497H15.03C15.2154 14.1497 15.3963 14.0957 15.5529 13.9949C15.7777 13.8456 15.9361 13.6154 15.9953 13.3522C16.0545 13.0889 16.0098 12.813 15.8706 12.5819L9.83973 2.53518C9.76115 2.4025 9.65267 2.29001 9.52293 2.20668H9.52203ZM9.00003 12.5999C8.76133 12.5999 8.53241 12.5051 8.36363 12.3363C8.19485 12.1675 8.10002 11.9386 8.10002 11.6999C8.10002 11.4612 8.19485 11.2323 8.36363 11.0635C8.53241 10.8947 8.76133 10.7999 9.00003 10.7999C9.23872 10.7999 9.46764 10.8947 9.63642 11.0635C9.80521 11.2323 9.90003 11.4612 9.90003 11.6999C9.90003 11.9386 9.80521 12.1675 9.63642 12.3363C9.46764 12.5051 9.23872 12.5999 9.00003 12.5999ZM9.00003 4.49989C9.23872 4.49989 9.46764 4.59471 9.63642 4.76349C9.80521 4.93227 9.90003 5.16119 9.90003 5.39989V8.9999C9.90003 9.23859 9.80521 9.46751 9.63642 9.6363C9.46764 9.80508 9.23872 9.8999 9.00003 9.8999C8.76133 9.8999 8.53241 9.80508 8.36363 9.6363C8.19485 9.46751 8.10002 9.23859 8.10002 8.9999V5.39989C8.10002 5.16119 8.19485 4.93227 8.36363 4.76349C8.53241 4.59471 8.76133 4.49989 9.00003 4.49989Z" fill="#D81111"/>
</svg>
