<svg width="24" height="24" viewBox="0 0 24 24" fill="none" xmlns="http://www.w3.org/2000/svg">
<path fill-rule="evenodd" clip-rule="evenodd" d="M12 21C13.1819 21 14.3522 20.7672 15.4442 20.3149C16.5361 19.8626 17.5282 19.1997 18.364 18.364C19.1997 17.5282 19.8626 16.5361 20.3149 15.4442C20.7672 14.3522 21 13.1819 21 12C21 10.8181 20.7672 9.64778 20.3149 8.55585C19.8626 7.46392 19.1997 6.47177 18.364 5.63604C17.5282 4.80031 16.5361 4.13738 15.4442 3.68508C14.3522 3.23279 13.1819 3 12 3C9.61305 3 7.32387 3.94821 5.63604 5.63604C3.94821 7.32387 3 9.61305 3 12C3 14.3869 3.94821 16.6761 5.63604 18.364C7.32387 20.0518 9.61305 21 12 21ZM16.768 9.64C16.8558 9.53964 16.9226 9.42274 16.9646 9.29617C17.0065 9.1696 17.0227 9.03591 17.0123 8.90298C17.0018 8.77006 16.9648 8.64056 16.9036 8.52213C16.8423 8.40369 16.758 8.29871 16.6555 8.21334C16.5531 8.12798 16.4346 8.06396 16.3071 8.02506C16.1796 7.98616 16.0455 7.97316 15.9129 7.98683C15.7802 8.00049 15.6517 8.04055 15.5347 8.10463C15.4178 8.16872 15.3149 8.25554 15.232 8.36L11.634 12.677C11.287 13.093 11.092 13.324 10.937 13.465L10.931 13.471L10.924 13.466C10.756 13.339 10.541 13.127 10.159 12.744L8.707 11.293C8.5184 11.1108 8.2658 11.01 8.0036 11.0123C7.7414 11.0146 7.49059 11.1198 7.30518 11.3052C7.11977 11.4906 7.0146 11.7414 7.01233 12.0036C7.01005 12.2658 7.11084 12.5184 7.293 12.707L8.744 14.158L8.785 14.199C9.112 14.526 9.425 14.84 9.718 15.061C10.045 15.309 10.474 15.541 11.023 15.517C11.573 15.492 11.979 15.221 12.283 14.945C12.553 14.698 12.838 14.357 13.133 14.002L13.17 13.958L16.768 9.64Z" fill="#F6830E"/>
</svg>
