<svg width="150" height="150" viewBox="0 0 150 150" fill="none" xmlns="http://www.w3.org/2000/svg">
<g clip-path="url(#clip0_3471_1776)">
<path d="M150 75C150 33.5789 116.421 0 75 0C33.5789 0 0 33.5789 0 75C0 112.434 27.4266 143.463 63.2812 149.089V96.6797H44.2383V75H63.2812V58.4766C63.2812 39.6797 74.4785 29.2969 91.6102 29.2969C99.8156 29.2969 108.398 30.7617 108.398 30.7617V49.2188H98.9414C89.6244 49.2188 86.7188 55.0002 86.7188 60.9316V75H107.52L104.194 96.6797H86.7188V149.089C122.573 143.463 150 112.435 150 75Z" fill="#1877F2"/>
<path d="M104.194 96.6797L107.52 75H86.7188V60.9316C86.7188 54.9996 89.6244 49.2188 98.9414 49.2188H108.398V30.7617C108.398 30.7617 99.8156 29.2969 91.6096 29.2969C74.4785 29.2969 63.2812 39.6797 63.2812 58.4766V75H44.2383V96.6797H63.2812V149.089C67.1579 149.696 71.076 150.001 75 150C78.924 150.001 82.8421 149.696 86.7188 149.089V96.6797H104.194Z" fill="white"/>
</g>
<defs>
<clipPath id="clip0_3471_1776">
<rect width="150" height="150" fill="white"/>
</clipPath>
</defs>
</svg>
