<svg width="150" height="123" viewBox="0 0 150 123" fill="none" xmlns="http://www.w3.org/2000/svg">
<g clip-path="url(#clip0_3471_1784)">
<path d="M150 14.9119C144.383 17.4006 138.425 19.0339 132.325 19.7576C138.679 15.949 143.558 9.91797 145.856 2.73203C139.815 6.31653 133.206 8.84216 126.314 10.1998C120.7 4.21914 112.703 0.481445 103.851 0.481445C86.8553 0.481445 73.0758 14.2604 73.0758 31.2549C73.0758 33.6672 73.3482 36.0156 73.8727 38.2686C48.2965 36.9848 25.6207 24.7334 10.442 6.11465C7.79355 10.6598 6.27598 15.9467 6.27598 21.5857C6.27598 32.2627 11.7094 41.6816 19.9664 47.2006C15.0793 47.0478 10.2998 45.7279 6.02695 43.351C6.02539 43.4799 6.0248 43.609 6.0252 43.7383C6.0252 58.6486 16.633 71.0869 30.7107 73.9141C26.179 75.1464 21.4256 75.3267 16.8135 74.4414C20.7293 86.6676 32.0947 95.5645 45.5607 95.8135C35.0285 104.067 21.7588 108.987 7.34121 108.987C4.85684 108.987 2.40762 108.841 0 108.557C13.6189 117.289 29.7949 122.383 47.1738 122.383C103.779 122.383 134.733 75.4902 134.733 34.8238C134.733 33.4891 134.703 32.1619 134.644 30.8424C140.668 26.4865 145.868 21.0921 150 14.9119Z" fill="#55ACEE"/>
</g>
<defs>
<clipPath id="clip0_3471_1784">
<rect width="150" height="122.461" fill="white"/>
</clipPath>
</defs>
</svg>
