<svg width="32" height="32" viewBox="0 0 32 32" fill="none" xmlns="http://www.w3.org/2000/svg">
<path d="M5.33464 26.6668C4.6013 26.6668 3.97375 26.4059 3.45197 25.8842C2.93019 25.3624 2.66886 24.7344 2.66797 24.0002V8.00016C2.66797 7.26683 2.9293 6.63927 3.45197 6.1175C3.97464 5.59572 4.60219 5.33438 5.33464 5.3335H12.2346C12.5902 5.3335 12.9293 5.40016 13.252 5.5335C13.5746 5.66683 13.8577 5.85572 14.1013 6.10016L16.0013 8.00016H26.668C27.4013 8.00016 28.0293 8.2615 28.552 8.78416C29.0746 9.30683 29.3355 9.93438 29.3346 10.6668V16.7002C29.3346 17.0779 29.2066 17.3948 28.9506 17.6508C28.6946 17.9068 28.3782 18.0344 28.0013 18.0335C27.6244 18.0326 27.308 17.9046 27.052 17.6495C26.796 17.3944 26.668 17.0779 26.668 16.7002V10.6668H16.0013C15.6457 10.6668 15.3066 10.6002 14.984 10.4668C14.6613 10.3335 14.3782 10.1446 14.1346 9.90016L12.2346 8.00016H5.33464V24.0002H8.0013C8.37908 24.0002 8.69597 24.1282 8.95197 24.3842C9.20797 24.6402 9.33553 24.9566 9.33464 25.3335C9.33375 25.7104 9.20575 26.0273 8.95064 26.2842C8.69553 26.541 8.37908 26.6686 8.0013 26.6668H5.33464ZM21.3346 28.0002C22.6013 28.0002 23.796 27.7113 24.9186 27.1335C26.0413 26.5557 26.9578 25.7335 27.668 24.6668C26.9569 23.6002 26.0404 22.7779 24.9186 22.2002C23.7969 21.6224 22.6022 21.3335 21.3346 21.3335C20.0671 21.3335 18.8729 21.6224 17.752 22.2002C16.6311 22.7779 15.7142 23.6002 15.0013 24.6668C15.7124 25.7335 16.6293 26.5557 17.752 27.1335C18.8746 27.7113 20.0689 28.0002 21.3346 28.0002ZM21.3346 26.6668C20.7791 26.6668 20.3071 26.4726 19.9186 26.0842C19.5302 25.6957 19.3355 25.2233 19.3346 24.6668C19.3337 24.1104 19.5284 23.6384 19.9186 23.2508C20.3089 22.8633 20.7809 22.6686 21.3346 22.6668C21.8884 22.665 22.3609 22.8597 22.752 23.2508C23.1431 23.6419 23.3373 24.1139 23.3346 24.6668C23.332 25.2197 23.1378 25.6922 22.752 26.0842C22.3662 26.4762 21.8938 26.6704 21.3346 26.6668ZM5.33464 24.0002V8.00016V17.2335V16.0002V24.0002ZM21.3346 30.6668C19.5791 30.6668 17.9404 30.2668 16.4186 29.4668C14.8969 28.6668 13.6689 27.5335 12.7346 26.0668C12.6013 25.8668 12.5013 25.6499 12.4346 25.4162C12.368 25.1824 12.3346 24.9437 12.3346 24.7002C12.3346 24.4566 12.368 24.2122 12.4346 23.9668C12.5013 23.7215 12.6013 23.4882 12.7346 23.2668C13.668 21.8002 14.896 20.6668 16.4186 19.8668C17.9413 19.0668 19.58 18.6668 21.3346 18.6668C23.0893 18.6668 24.7284 19.0668 26.252 19.8668C27.7755 20.6668 29.0031 21.8002 29.9346 23.2668C30.068 23.489 30.168 23.717 30.2346 23.9508C30.3013 24.1846 30.3346 24.4233 30.3346 24.6668C30.3346 24.9104 30.3013 25.1495 30.2346 25.3842C30.168 25.6188 30.068 25.8464 29.9346 26.0668C29.0013 27.5335 27.7738 28.6668 26.252 29.4668C24.7302 30.2668 23.0911 30.6668 21.3346 30.6668Z" fill="white"/>
</svg>
