<svg width="150" height="150" viewBox="0 0 150 150" fill="none" xmlns="http://www.w3.org/2000/svg">
<path d="M102.25 87.5C102.75 83.375 103.125 79.25 103.125 75C103.125 70.75 102.75 66.625 102.25 62.5H123.375C124.375 66.5 125 70.6875 125 75C125 79.3125 124.375 83.5 123.375 87.5M91.1875 122.25C94.9375 115.312 97.8125 107.812 99.8125 100H118.25C112.195 110.427 102.588 118.325 91.1875 122.25ZM89.625 87.5H60.375C59.75 83.375 59.375 79.25 59.375 75C59.375 70.75 59.75 66.5625 60.375 62.5H89.625C90.1875 66.5625 90.625 70.75 90.625 75C90.625 79.25 90.1875 83.375 89.625 87.5ZM75 124.75C69.8125 117.25 65.625 108.938 63.0625 100H86.9375C84.375 108.938 80.1875 117.25 75 124.75ZM50 50H31.75C37.7415 39.544 47.3416 31.6328 58.75 27.75C55 34.6875 52.1875 42.1875 50 50ZM31.75 100H50C52.1875 107.812 55 115.312 58.75 122.25C47.3642 118.327 37.7768 110.426 31.75 100ZM26.625 87.5C25.625 83.5 25 79.3125 25 75C25 70.6875 25.625 66.5 26.625 62.5H47.75C47.25 66.625 46.875 70.75 46.875 75C46.875 79.25 47.25 83.375 47.75 87.5M75 25.1875C80.1875 32.6875 84.375 41.0625 86.9375 50H63.0625C65.625 41.0625 69.8125 32.6875 75 25.1875ZM118.25 50H99.8125C97.8534 42.2601 94.957 34.7882 91.1875 27.75C102.688 31.6875 112.25 39.625 118.25 50ZM75 12.5C40.4375 12.5 12.5 40.625 12.5 75C12.5 91.576 19.0848 107.473 30.8058 119.194C36.6095 124.998 43.4994 129.602 51.0823 132.742C58.6651 135.883 66.7924 137.5 75 137.5C91.576 137.5 107.473 130.915 119.194 119.194C130.915 107.473 137.5 91.576 137.5 75C137.5 66.7924 135.883 58.6651 132.742 51.0823C129.602 43.4994 124.998 36.6095 119.194 30.8058C113.391 25.0022 106.501 20.3984 98.9177 17.2575C91.3349 14.1166 83.2076 12.5 75 12.5Z" fill="black"/>
</svg>
