<svg width="8" height="9" viewBox="0 0 8 9" fill="none" xmlns="http://www.w3.org/2000/svg">
<path fill-rule="evenodd" clip-rule="evenodd" d="M0.5 8.1H7.5C7.63261 8.1 7.75979 8.14741 7.85355 8.2318C7.94732 8.31619 8 8.43065 8 8.55C8 8.66935 7.94732 8.78381 7.85355 8.8682C7.75979 8.95259 7.63261 9 7.5 9H0.5C0.367392 9 0.240215 8.95259 0.146447 8.8682C0.0526785 8.78381 0 8.66935 0 8.55C0 8.43065 0.0526785 8.31619 0.146447 8.2318C0.240215 8.14741 0.367392 8.1 0.5 8.1ZM0 5.85L5 1.35L6.5 2.7L1.5 7.2H0V5.85ZM5.5 0.9L6.5 0L8 1.35L6.9995 2.25045L5.5 0.9Z" fill="#F79E1B"/>
</svg>
