<svg width="150" height="150" viewBox="0 0 150 150" fill="none" xmlns="http://www.w3.org/2000/svg">
<g clip-path="url(#clip0_3471_1779)">
<path d="M114.844 0H35.1562C15.74 0 0 15.74 0 35.1562V114.844C0 134.26 15.74 150 35.1562 150H114.844C134.26 150 150 134.26 150 114.844V35.1562C150 15.74 134.26 0 114.844 0Z" fill="url(#paint0_radial_3471_1779)"/>
<path d="M114.844 0H35.1562C15.74 0 0 15.74 0 35.1562V114.844C0 134.26 15.74 150 35.1562 150H114.844C134.26 150 150 134.26 150 114.844V35.1562C150 15.74 134.26 0 114.844 0Z" fill="url(#paint1_radial_3471_1779)"/>
<path d="M75.0053 16.4062C59.0924 16.4062 57.0949 16.476 50.8453 16.7602C44.6074 17.0461 40.3494 18.0334 36.624 19.4824C32.7697 20.9789 29.5008 22.9811 26.2441 26.2389C22.9846 29.4961 20.9824 32.765 19.4813 36.6176C18.0281 40.3441 17.0396 44.6039 16.759 50.8389C16.4795 57.0891 16.4062 59.0871 16.4062 75.0006C16.4062 90.9141 16.4766 92.9051 16.7602 99.1547C17.0473 105.393 18.0346 109.651 19.4824 113.376C20.9801 117.23 22.9822 120.499 26.24 123.756C29.4961 127.015 32.765 129.022 36.6164 130.519C40.3447 131.968 44.6033 132.955 50.84 133.241C57.0902 133.525 59.0859 133.595 74.9982 133.595C90.9129 133.595 92.9039 133.525 99.1535 133.241C105.391 132.955 109.654 131.968 113.382 130.519C117.235 129.022 120.499 127.015 123.755 123.756C127.014 120.499 129.016 117.23 130.518 113.378C131.958 109.651 132.947 105.391 133.24 99.1559C133.521 92.9062 133.594 90.9141 133.594 75.0006C133.594 59.0871 133.521 57.0902 133.24 50.84C132.947 44.6021 131.958 40.3447 130.518 36.6193C129.016 32.765 127.014 29.4961 123.755 26.2389C120.496 22.9799 117.236 20.9777 113.379 19.483C109.644 18.0334 105.383 17.0455 99.1453 16.7602C92.8951 16.476 90.9053 16.4062 74.9871 16.4062H75.0053ZM69.7488 26.9654C71.3092 26.9631 73.05 26.9654 75.0053 26.9654C90.6504 26.9654 92.5043 27.0217 98.6824 27.3023C104.395 27.5637 107.496 28.5182 109.562 29.3203C112.296 30.382 114.246 31.6518 116.295 33.7031C118.346 35.7539 119.615 37.7068 120.68 40.4414C121.482 42.5039 122.438 45.6047 122.698 51.3176C122.978 57.4945 123.039 59.3496 123.039 74.9871C123.039 90.6246 122.978 92.4803 122.698 98.6566C122.436 104.37 121.482 107.47 120.68 109.533C119.618 112.268 118.346 114.215 116.295 116.265C114.244 118.315 112.297 119.585 109.562 120.647C107.498 121.453 104.395 122.405 98.6824 122.666C92.5055 122.947 90.6504 123.008 75.0053 123.008C59.3596 123.008 57.5051 122.947 51.3287 122.666C45.6158 122.402 42.515 121.448 40.4479 120.646C37.7139 119.583 35.7604 118.314 33.7096 116.263C31.6588 114.213 30.3896 112.264 29.325 109.529C28.5229 107.466 27.5672 104.365 27.307 98.652C27.0264 92.475 26.9701 90.6199 26.9701 74.9725C26.9701 59.325 27.0264 57.4799 27.307 51.3029C27.5684 45.59 28.5229 42.4893 29.325 40.4238C30.3873 37.6893 31.6588 35.7363 33.7102 33.6855C35.7615 31.6348 37.7139 30.365 40.4484 29.301C42.5139 28.4953 45.6158 27.5432 51.3287 27.2807C56.734 27.0363 58.8287 26.9631 69.7488 26.9508V26.9654ZM106.283 36.6943C102.401 36.6943 99.2514 39.8408 99.2514 43.7232C99.2514 47.6051 102.401 50.7545 106.283 50.7545C110.164 50.7545 113.314 47.6051 113.314 43.7232C113.314 39.8414 110.164 36.692 106.283 36.692V36.6943ZM75.0053 44.9098C58.3881 44.9098 44.915 58.3828 44.915 75.0006C44.915 91.6184 58.3881 105.085 75.0053 105.085C91.623 105.085 105.091 91.6184 105.091 75.0006C105.091 58.3834 91.6219 44.9098 75.0041 44.9098H75.0053ZM75.0053 55.4689C85.7918 55.4689 94.5369 64.2129 94.5369 75.0006C94.5369 85.7871 85.7918 94.5322 75.0053 94.5322C64.2188 94.5322 55.4742 85.7871 55.4742 75.0006C55.4742 64.2129 64.2182 55.4689 75.0053 55.4689Z" fill="white"/>
</g>
<defs>
<radialGradient id="paint0_radial_3471_1779" cx="0" cy="0" r="1" gradientUnits="userSpaceOnUse" gradientTransform="translate(39.8437 161.553) rotate(-90) scale(148.661 138.267)">
<stop stop-color="#FFDD55"/>
<stop offset="0.1" stop-color="#FFDD55"/>
<stop offset="0.5" stop-color="#FF543E"/>
<stop offset="1" stop-color="#C837AB"/>
</radialGradient>
<radialGradient id="paint1_radial_3471_1779" cx="0" cy="0" r="1" gradientUnits="userSpaceOnUse" gradientTransform="translate(-25.1256 10.8053) rotate(78.681) scale(66.4523 273.919)">
<stop stop-color="#3771C8"/>
<stop offset="0.128" stop-color="#3771C8"/>
<stop offset="1" stop-color="#6600FF" stop-opacity="0"/>
</radialGradient>
<clipPath id="clip0_3471_1779">
<rect width="150" height="150" fill="white"/>
</clipPath>
</defs>
</svg>
