<svg width="34" height="31" viewBox="0 0 34 31" fill="none" xmlns="http://www.w3.org/2000/svg">
<path d="M25.0002 13.4876C25.0002 12.9341 25.0002 12.6573 25.0834 12.4109C25.325 11.6941 25.9633 11.4173 26.6033 11.1261C27.3201 10.7981 27.6785 10.6349 28.0353 10.6061C28.4385 10.5741 28.8433 10.6605 29.1889 10.8541C29.6465 11.1101 29.9665 11.5997 30.2929 11.9965C31.8016 13.83 32.5568 14.7468 32.832 15.7564C33.056 16.5724 33.056 17.4268 32.832 18.2412C32.4304 19.7163 31.1584 20.9515 30.2161 22.0971C29.7345 22.6811 29.4929 22.9739 29.1889 23.1451C28.8373 23.34 28.4359 23.4263 28.0353 23.3931C27.6785 23.3643 27.3201 23.2011 26.6017 22.8731C25.9617 22.5819 25.325 22.3051 25.0834 21.5883C25.0002 21.3419 25.0002 21.0651 25.0002 20.5115V13.4876ZM9.00048 13.4876C9.00048 12.7901 8.98128 12.1645 8.41809 11.6749C8.21329 11.4973 7.9413 11.3741 7.39891 11.1261C6.68052 10.7997 6.32213 10.6349 5.96534 10.6061C4.89816 10.5197 4.32377 11.2493 3.70938 11.9981C2.19901 13.83 1.44383 14.7468 1.16703 15.758C0.944323 16.5713 0.944323 17.4295 1.16703 18.2428C1.57022 19.7163 2.8438 20.9531 3.78458 22.0971C4.37817 22.8171 4.94616 23.4747 5.96534 23.3931C6.32213 23.3643 6.68052 23.2011 7.39891 22.8731C7.9429 22.6267 8.21329 22.5019 8.41809 22.3243C8.98128 21.8347 9.00048 21.2091 9.00048 20.5131V13.4876Z" stroke="white" stroke-width="1.5" stroke-linecap="round" stroke-linejoin="round"/>
<path d="M5.80078 10.5998C5.80078 5.29752 10.8151 1 17.0006 1C23.186 1 28.2003 5.29752 28.2003 10.5998M28.2003 23.3996V24.6795C28.2003 27.5067 25.3364 29.7994 21.8005 29.7994H18.6005" stroke="white" stroke-width="1.5" stroke-linecap="round" stroke-linejoin="round"/>
</svg>
