<svg width="20" height="20" viewBox="0 0 20 20" fill="none" xmlns="http://www.w3.org/2000/svg">
<path fill-rule="evenodd" clip-rule="evenodd" d="M9.99944 17.6571L10.6004 16.9799C11.2823 16.1996 11.896 15.457 12.4413 14.7523L12.8918 14.158C14.7731 11.624 15.7137 9.61356 15.7137 8.12657C15.7137 4.95324 13.1556 2.38086 9.99944 2.38086C6.84325 2.38086 4.28516 4.95324 4.28516 8.12657C4.28516 9.61356 5.22579 11.6244 7.10706 14.159L7.55754 14.7532C8.33615 15.7507 9.15066 16.7186 9.99944 17.6571Z" stroke="black" stroke-linecap="round" stroke-linejoin="round"/>
<path d="M9.99814 10.4763C11.3131 10.4763 12.3791 9.41027 12.3791 8.09531C12.3791 6.78034 11.3131 5.71436 9.99814 5.71436C8.68318 5.71436 7.61719 6.78034 7.61719 8.09531C7.61719 9.41027 8.68318 10.4763 9.99814 10.4763Z" stroke="black" stroke-linecap="round" stroke-linejoin="round"/>
</svg>
