<svg width="30" height="22" viewBox="0 0 30 22" fill="none" xmlns="http://www.w3.org/2000/svg">
<path d="M13.6364 21.8182H7.5C5.43182 21.8182 3.665 21.1023 2.19955 19.6705C0.734091 18.2386 0.000909091 16.4886 0 14.4205C0 12.6477 0.534091 11.0682 1.60227 9.68182C2.67045 8.29545 4.06818 7.40909 5.79545 7.02273C6.36364 4.93182 7.5 3.23864 9.20455 1.94318C10.9091 0.647727 12.8409 0 15 0C17.6591 0 19.915 0.926364 21.7677 2.77909C23.6205 4.63182 24.5464 6.88727 24.5455 9.54545C26.1136 9.72727 27.415 10.4036 28.4495 11.5745C29.4841 12.7455 30.0009 14.1145 30 15.6818C30 17.3864 29.4036 18.8355 28.2109 20.0291C27.0182 21.2227 25.5691 21.8191 23.8636 21.8182H16.3636V12.0682L18.5455 14.1818L20.4545 12.2727L15 6.81818L9.54545 12.2727L11.4545 14.1818L13.6364 12.0682V21.8182Z" fill="#13A8DA"/>
</svg>
