<svg width="62" height="46" viewBox="0 0 62 46" fill="none" xmlns="http://www.w3.org/2000/svg">
<path d="M28.1818 45.0909H15.5C11.2258 45.0909 7.57433 43.6114 4.54573 40.6523C1.51712 37.6932 0.00187879 34.0765 0 29.8023C0 26.1386 1.10379 22.8742 3.31136 20.0091C5.51894 17.1439 8.40758 15.3121 11.9773 14.5136C13.1515 10.1924 15.5 6.69318 19.0227 4.01591C22.5455 1.33864 26.5379 0 31 0C36.4955 0 41.1577 1.91448 44.9866 5.74345C48.8156 9.57242 50.7291 14.2337 50.7273 19.7273C53.9682 20.103 56.6577 21.5008 58.7957 23.9207C60.9338 26.3406 62.0019 29.1701 62 32.4091C62 35.9318 60.7675 38.9266 58.3025 41.3934C55.8376 43.8603 52.8428 45.0928 49.3182 45.0909H33.8182V24.9409L38.3273 29.3091L42.2727 25.3636L31 14.0909L19.7273 25.3636L23.6727 29.3091L28.1818 24.9409V45.0909Z" fill="#13A8DA"/>
</svg>
