<svg width="32" height="32" viewBox="0 0 32 32" fill="none" xmlns="http://www.w3.org/2000/svg">
<path d="M20.6246 9.89779C20.4342 9.86993 20.2534 9.79613 20.0979 9.68277C19.9424 9.5694 19.8169 9.41988 19.7321 9.24712L15.9407 1.51852C15.8919 1.41897 15.8162 1.33509 15.7221 1.27643C15.6281 1.21776 15.5194 1.18667 15.4086 1.18667C15.2977 1.18667 15.1891 1.21776 15.095 1.27643C15.0009 1.33509 14.9252 1.41897 14.8764 1.51852L11.0862 9.24594C11.0016 9.41892 10.8761 9.56867 10.7206 9.68225C10.5651 9.79583 10.3843 9.86981 10.1938 9.89779L1.69359 11.1399C1.58438 11.1559 1.48183 11.2022 1.39749 11.2734C1.31315 11.3446 1.25038 11.438 1.21625 11.5429C1.18212 11.6479 1.17799 11.7603 1.20433 11.8675C1.23066 11.9747 1.28641 12.0724 1.3653 12.1496L7.52234 18.1894C7.65904 18.3233 7.76127 18.4883 7.8203 18.6704C7.87933 18.8524 7.8934 19.046 7.8613 19.2347L6.40945 27.7479C6.3908 27.857 6.4031 27.9692 6.44495 28.0717C6.48679 28.1742 6.55652 28.2629 6.64621 28.3278C6.73591 28.3927 6.84199 28.4312 6.95243 28.4389C7.06287 28.4465 7.17326 28.4231 7.27108 28.3713L12.7111 25.4937C12.8027 25.8903 12.9149 26.2779 13.0477 26.6563L7.82456 29.419C6.52086 30.1088 4.99315 29.003 5.24086 27.5488L6.69271 19.0356L0.53448 12.9959C-0.51441 11.9648 0.0675166 10.1799 1.52293 9.96653L10.0207 8.72445L13.8133 0.994668C14.464 -0.331556 16.3544 -0.331556 17.005 0.994668L20.7964 8.72445L29.2942 9.96653C30.7496 10.1799 31.3327 11.9659 30.2827 12.9959L29.0228 14.232C28.6819 14.0044 28.3281 13.7967 27.9633 13.6098L29.453 12.1496C29.5319 12.0724 29.5877 11.9746 29.614 11.8673C29.6402 11.76 29.636 11.6475 29.6017 11.5425C29.5675 11.4375 29.5045 11.3441 29.42 11.273C29.3356 11.2019 29.2329 11.1557 29.1236 11.1399L20.6246 9.89779ZM23.1111 32.0015C25.4686 32.0015 27.7295 31.065 29.3965 29.398C31.0635 27.731 32 25.4701 32 23.1126C32 20.7551 31.0635 18.4942 29.3965 16.8272C27.7295 15.1602 25.4686 14.2237 23.1111 14.2237C20.7536 14.2237 18.4927 15.1602 16.8257 16.8272C15.1587 18.4942 14.2222 20.7551 14.2222 23.1126C14.2222 25.4701 15.1587 27.731 16.8257 29.398C18.4927 31.065 20.7536 32.0015 23.1111 32.0015ZM24.2963 17.483V21.9274H28.7407C28.9765 21.9274 29.2026 22.0211 29.3693 22.1878C29.536 22.3545 29.6296 22.5806 29.6296 22.8163C29.6296 23.0521 29.536 23.2782 29.3693 23.4449C29.2026 23.6116 28.9765 23.7052 28.7407 23.7052H24.2963V28.1497C24.2963 28.3854 24.2026 28.6115 24.0359 28.7782C23.8692 28.9449 23.6431 29.0386 23.4074 29.0386C23.1716 29.0386 22.9456 28.9449 22.7789 28.7782C22.6122 28.6115 22.5185 28.3854 22.5185 28.1497V23.7052H18.0741C17.8383 23.7052 17.6122 23.6116 17.4455 23.4449C17.2788 23.2782 17.1852 23.0521 17.1852 22.8163C17.1852 22.5806 17.2788 22.3545 17.4455 22.1878C17.6122 22.0211 17.8383 21.9274 18.0741 21.9274H22.5185V17.483C22.5185 17.2472 22.6122 17.0211 22.7789 16.8544C22.9456 16.6877 23.1716 16.5941 23.4074 16.5941C23.6431 16.5941 23.8692 16.6877 24.0359 16.8544C24.2026 17.0211 24.2963 17.2472 24.2963 17.483Z" fill="white"/>
</svg>
