<svg width="14" height="17" viewBox="0 0 14 17" fill="none" xmlns="http://www.w3.org/2000/svg">
<path fill-rule="evenodd" clip-rule="evenodd" d="M0.84375 15.1875H12.6562C12.88 15.1875 13.0946 15.2764 13.2529 15.4346C13.4111 15.5929 13.5 15.8075 13.5 16.0312C13.5 16.255 13.4111 16.4696 13.2529 16.6279C13.0946 16.7861 12.88 16.875 12.6562 16.875H0.84375C0.619974 16.875 0.405363 16.7861 0.247129 16.6279C0.088895 16.4696 0 16.255 0 16.0312C0 15.8075 0.088895 15.5929 0.247129 15.4346C0.405363 15.2764 0.619974 15.1875 0.84375 15.1875ZM0 10.9688L8.4375 2.53125L10.9688 5.0625L2.53125 13.5H0V10.9688ZM9.28125 1.6875L10.9688 0L13.5 2.53125L11.8117 4.21959L9.28125 1.6875Z" fill="#F79E1B"/>
</svg>
