<svg width="32" height="32" viewBox="0 0 32 32" fill="none" xmlns="http://www.w3.org/2000/svg">
<path fill-rule="evenodd" clip-rule="evenodd" d="M16.9008 1.92H15.0992L14.0672 6.0448L13.032 6.3648C12.4288 6.55068 11.8443 6.79281 11.2864 7.088L10.328 7.5952L6.68 5.4064L5.4064 6.6816L7.5952 10.3296L7.088 11.2864C6.79226 11.8443 6.54959 12.4287 6.3632 13.032L6.0448 14.0672L1.92 15.0992V16.9008L6.0448 17.9328L6.3648 18.968C6.54933 19.5739 6.7904 20.1557 7.088 20.7136L7.5952 21.672L5.4064 25.32L6.6816 26.5936L10.3296 24.4048L11.2864 24.912C11.8443 25.2085 12.4261 25.4501 13.032 25.6368L14.0672 25.9552L15.0992 30.08H16.9008L17.9328 25.9552L18.968 25.6352C19.5712 25.4493 20.1557 25.2072 20.7136 24.912L21.672 24.4048L25.32 26.5936L26.5936 25.3184L24.4048 21.6704L24.912 20.7136C25.2085 20.1557 25.4501 19.5739 25.6368 18.968L25.9552 17.9328L30.08 16.9008V15.0992L25.9552 14.0672L25.6352 13.032C25.4493 12.4288 25.2072 11.8443 24.912 11.2864L24.4048 10.328L26.5936 6.68L25.3184 5.4064L21.6704 7.5952L20.7136 7.088C20.1557 6.79226 19.5713 6.54959 18.968 6.3632L17.9328 6.0448L16.9008 1.92ZM21.6128 5.392L24.5456 3.632C24.8514 3.44858 25.2097 3.37258 25.5637 3.41606C25.9176 3.45954 26.2469 3.62001 26.4992 3.872L28.128 5.5008C28.38 5.75312 28.5405 6.08239 28.5839 6.43633C28.6274 6.79027 28.5514 7.14859 28.368 7.4544L26.608 10.3872C26.96 11.0485 27.248 11.7419 27.472 12.4672L30.7888 13.2976C31.1348 13.3843 31.4419 13.5841 31.6614 13.8653C31.8808 14.1465 32 14.4929 32 14.8496V17.1504C32 17.5071 31.8808 17.8535 31.6614 18.1347C31.4419 18.4159 31.1348 18.6157 30.7888 18.7024L27.472 19.5328C27.248 20.2581 26.96 20.9515 26.608 21.6128L28.368 24.5456C28.5514 24.8514 28.6274 25.2097 28.5839 25.5637C28.5405 25.9176 28.38 26.2469 28.128 26.4992L26.4992 28.128C26.2469 28.38 25.9176 28.5405 25.5637 28.5839C25.2097 28.6274 24.8514 28.5514 24.5456 28.368L21.6128 26.608C20.9515 26.96 20.2581 27.248 19.5328 27.472L18.7024 30.7888C18.6157 31.1348 18.4159 31.4419 18.1347 31.6614C17.8535 31.8808 17.5071 32 17.1504 32H14.8496C14.4929 32 14.1465 31.8808 13.8653 31.6614C13.5841 31.4419 13.3843 31.1348 13.2976 30.7888L12.4672 27.472C11.7483 27.2498 11.0519 26.9606 10.3872 26.608L7.4544 28.368C7.14859 28.5514 6.79027 28.6274 6.43633 28.5839C6.08239 28.5405 5.75312 28.38 5.5008 28.128L3.872 26.4992C3.62001 26.2469 3.45954 25.9176 3.41606 25.5637C3.37258 25.2097 3.44858 24.8514 3.632 24.5456L5.392 21.6128C5.03943 20.9481 4.75015 20.2517 4.528 19.5328L1.2112 18.7024C0.865471 18.6158 0.558557 18.4162 0.33914 18.1354C0.119723 17.8545 0.000365828 17.5084 0 17.152V14.8512C9.37669e-06 14.4945 0.119203 14.1481 0.338649 13.8669C0.558094 13.5857 0.865205 13.3859 1.2112 13.2992L4.528 12.4688C4.752 11.7435 5.04 11.0501 5.392 10.3888L3.632 7.456C3.44858 7.15019 3.37258 6.79187 3.41606 6.43793C3.45954 6.08399 3.62001 5.75472 3.872 5.5024L5.5008 3.872C5.75312 3.62001 6.08239 3.45954 6.43633 3.41606C6.79027 3.37258 7.14859 3.44858 7.4544 3.632L10.3872 5.392C11.0485 5.04 11.7419 4.752 12.4672 4.528L13.2976 1.2112C13.3842 0.865471 13.5838 0.558557 13.8646 0.33914C14.1455 0.119723 14.4916 0.000365828 14.848 0H17.1488C17.5055 9.37669e-06 17.8519 0.119203 18.1331 0.338649C18.4143 0.558094 18.6141 0.865205 18.7008 1.2112L19.5312 4.528C20.2565 4.752 20.9499 5.04 21.6112 5.392H21.6128ZM16 20.48C17.1882 20.48 18.3277 20.008 19.1678 19.1678C20.008 18.3277 20.48 17.1882 20.48 16C20.48 14.8118 20.008 13.6723 19.1678 12.8322C18.3277 11.992 17.1882 11.52 16 11.52C14.8118 11.52 13.6723 11.992 12.8322 12.8322C11.992 13.6723 11.52 14.8118 11.52 16C11.52 17.1882 11.992 18.3277 12.8322 19.1678C13.6723 20.008 14.8118 20.48 16 20.48ZM16 22.4C14.3026 22.4 12.6747 21.7257 11.4745 20.5255C10.2743 19.3253 9.6 17.6974 9.6 16C9.6 14.3026 10.2743 12.6747 11.4745 11.4745C12.6747 10.2743 14.3026 9.6 16 9.6C17.6974 9.6 19.3253 10.2743 20.5255 11.4745C21.7257 12.6747 22.4 14.3026 22.4 16C22.4 17.6974 21.7257 19.3253 20.5255 20.5255C19.3253 21.7257 17.6974 22.4 16 22.4Z" fill="white"/>
</svg>
